<?xml version="1.0" encoding="utf-8"?>
<?xml-stylesheet type="text/xsl" href="rss1.xsl"?>
<rss version="2.0" xmlns:atom="http://www.w3.org/2005/Atom" xmlns:content="http://purl.org/rss/1.0/modules/content/" xmlns:dc="http://purl.org/dc/elements/1.1/" xmlns:media="http://search.yahoo.com/mrss/">
<channel>
 <title>sharemania</title>
 <link>http://www.sharemania.us/</link>
 <atom:link href="http://www.gettyimg.com/" rel="self" type="application/rss+xml" />

 
                <item>
                <title><![CDATA[【UPSCALED】Madonna - Bedtime Story (Starlight AI) ~60fps]]></title>
                <link><![CDATA[https://sharemania.us/threads/madonna-bedtime-story-starlight-ai-60fps.282372/]]></link>
                <description><![CDATA[<article>
				<blockquote class="messageText SelectQuoteContainer ugc baseHtml">
					
					<span style="font-family: 'Courier New'"><span style="font-size: 12px">Video<br>
ID                                       : 1<br>
Format                                   : AVC<br>
Format/Info                              : Advanced Video Codec<br>
Format profile                           : Main@L4.2<br>
Format settings                          : CABAC / 1 Ref Frames<br>
Format settings, CABAC                   : Yes<br>
Format settings, Reference frames        : 1 frame<br>
Format settings, GOP                     : M=1, N=30<br>
Muxing mode                              : Container profile=Baseline@3.0<br>
Codec ID                                 : V_MPEG4/ISO/AVC<br>
Duration                                 : 4 min 25 s<br>
Bit rate                                 : 8 875 kb/s<br>
Width                                    : 1 920 pixels<br>
Height                                   : 1 080 pixels<br>
Display aspect ratio                     : 16:9<br>
Frame rate mode                          : Constant<br>
Frame rate                               : 60.000 FPS<br>
Standard                                 : Component<br>
Color space                              : YUV<br>
Chroma subsampling                       : 4:2:0<br>
Bit depth                                : 8 bits<br>
Scan type                                : Progressive<br>
Bits/(Pixel*Frame)                       : 0.071<br>
Stream size                              : 281 MiB (98%)<br>
Default                                  : Yes<br>
Forced                                   : No<br>
Color range                              : Limited<br>
Color primaries                          : BT.709<br>
Transfer characteristics                 : BT.709<br>
Matrix coefficients                      : BT.709<br>
<br>
Audio<br>
ID                                       : 2<br>
Format                                   : AAC LC<br>
Format/Info                              : Advanced Audio Codec Low Complexity<br>
Codec ID                                 : A_AAC-2<br>
Duration                                 : 4 min 24 s<br>
Bit rate                                 : 192 kb/s<br>
Channel(s)                               : 2 channels<br>
Channel layout                           : L R<br>
Sampling rate                            : 44.1 kHz<br>
Frame rate                               : 43.066 FPS (1024 SPF)<br>
Compression mode                         : Lossy<br>
Stream size                              : 6.06 MiB (2%)<br>
Default                                  : Yes<br>
Forced                                   : No</span></span><br>
<br>
<img src="https://i.imgur.com/IkpOawA.png" class="bbCodeImage LbImage" alt="[​IMG]" data-url="https://i.imgur.com/IkpOawA.png" style=""><br>
<br>
<span style="font-family: 'Courier New'"><span style="font-size: 12px"><i><b><span style="font-family: 'Tahoma'"><span style="font-size: 26px"><span style="color: rgb(0, 0, 255)">Click Here:</span></span></span></b></i></span></span><br>
<span style="font-family: 'Courier New'"><span style="font-size: 12px">



<div class="bbCodeBlock bbCodeVfcHH HiddenContent">
	<div class="attribution type">Hidden Content:</div>
	<blockquote>You must either reply or click 'Like' to see the hidden information contained here.</blockquote>
</div></span></span>
					<div class="messageTextEndMarker">&nbsp;</div>
				</blockquote>
			</article>]]></description>
                <author><![CDATA[austin_066]]></author>
                </item>

                </channel></rss>